<svg xmlns="http://www.w3.org/2000/svg" xmlns:xlink="http://www.w3.org/1999/xlink" viewBox="0 0 151.85 52.59"><defs><style>.cls-1,.cls-2{fill:none;}.cls-1{clip-rule:evenodd;}.cls-3{clip-path:url(#clip-path);}.cls-4{fill:#fff;}.cls-5{clip-path:url(#clip-path-2);}.cls-6{fill:#56af5f;}.cls-7{clip-path:url(#clip-path-3);}.cls-8{clip-path:url(#clip-path-4);}.cls-9{clip-path:url(#clip-path-5);}.cls-10{isolation:isolate;}.cls-11{clip-path:url(#clip-path-6);}.cls-12{clip-path:url(#clip-path-7);}</style><clipPath id="clip-path" transform="translate(5 5)"><path class="cls-1" d="M65.55,5.53a2.22,2.22,0,0,1,2.12-1.8,1.46,1.46,0,0,1,1.48,1.8A2.22,2.22,0,0,1,67,7.33,1.45,1.45,0,0,1,65.55,5.53ZM63.07,20.29h3.35L68.24,9.94H64.9ZM77,15l-.93,5.31h3.34l1.15-6.54a3.58,3.58,0,0,0-.51-3,3.45,3.45,0,0,0-2.78-1.05,4.51,4.51,0,0,0-3.47,1.51L74,9.94H70.68L68.86,20.29H72.2L73.14,15a3.15,3.15,0,0,1,1-2,2.14,2.14,0,0,1,1.49-.56,1.46,1.46,0,0,1,1.19.47A2.63,2.63,0,0,1,77,15Zm8.75-7.65a2.21,2.21,0,0,0,2.11-1.8,1.45,1.45,0,0,0-1.48-1.8,2.21,2.21,0,0,0-2.11,1.8A1.45,1.45,0,0,0,85.76,7.33Zm-4,13h3.34L87,9.94H83.63Zm14.28-3.55a2.14,2.14,0,0,0-.47-2,3.57,3.57,0,0,0-1.56-.91l-.83-.28a5.27,5.27,0,0,1-.94-.35.44.44,0,0,1-.24-.46.91.91,0,0,1,.29-.46,1.66,1.66,0,0,1,1-.31,3.28,3.28,0,0,1,1.73.58l1.69-2.11a5.69,5.69,0,0,0-3.28-.88,5.31,5.31,0,0,0-3.31,1A3.89,3.89,0,0,0,88.75,13a2.2,2.2,0,0,0,.41,1.88,3.24,3.24,0,0,0,1.5,1l.79.25a3.67,3.67,0,0,1,1,.37.58.58,0,0,1,.26.61,1.08,1.08,0,0,1-.47.67,2.06,2.06,0,0,1-1.08.23,2.77,2.77,0,0,1-1.33-.32,4.59,4.59,0,0,1-1-.77L87,19.15a5.23,5.23,0,0,0,4,1.49,5.16,5.16,0,0,0,3.58-1.19A4.59,4.59,0,0,0,96.08,16.74Zm5.4-1.63A3.51,3.51,0,0,1,102.55,13a2.16,2.16,0,0,1,1.42-.52,1.59,1.59,0,0,1,1.21.47,2.55,2.55,0,0,1,.2,2.07l-.94,5.31h3.34l1.16-6.57a3.62,3.62,0,0,0-.49-3,3.37,3.37,0,0,0-2.74-1.05,4.37,4.37,0,0,0-2.1.44,5.54,5.54,0,0,0-1.44,1.07l1.38-7.8h-3.34l-3,16.92h3.35Zm12.64-7.78a2.22,2.22,0,0,0,2.12-1.8,1.45,1.45,0,0,0-1.48-1.8,2.22,2.22,0,0,0-2.12,1.8A1.46,1.46,0,0,0,114.12,7.33Zm-4,13h3.34l1.82-10.35H112Zm16.35,0,1.15-6.54a3.62,3.62,0,0,0-.51-3,3.46,3.46,0,0,0-2.78-1.05,4.51,4.51,0,0,0-3.47,1.51l.21-1.23h-3.34L116,20.29h3.34l.93-5.31a3.2,3.2,0,0,1,1-2,2.18,2.18,0,0,1,1.49-.56,1.47,1.47,0,0,1,1.2.47,2.63,2.63,0,0,1,.19,2.07l-.94,5.31ZM141.85,9.94l-1.72,9.72a7.18,7.18,0,0,1-2,4.41,6.85,6.85,0,0,1-4.63,1.53,5.57,5.57,0,0,1-4.09-1.32,3.78,3.78,0,0,1-1.07-2.74h3.64a1.34,1.34,0,0,0,.57,1,2.38,2.38,0,0,0,1.37.35,2.76,2.76,0,0,0,1.77-.56,3.64,3.64,0,0,0,1.06-2.15l.2-1.19a4,4,0,0,1-3.36,1.56A4.26,4.26,0,0,1,130,19.11a4.65,4.65,0,0,1-.82-3.9,7.15,7.15,0,0,1,2.26-4.13,6,6,0,0,1,4-1.49,2.79,2.79,0,0,1,2.81,1.56l.21-1.21Zm-4,5.1a2.23,2.23,0,0,0-.45-1.9,2.38,2.38,0,0,0-1.7-.65,3.17,3.17,0,0,0-1.95.68,3.41,3.41,0,0,0-1.13,1.92A2.43,2.43,0,0,0,133,17a2.07,2.07,0,0,0,1.75.74,3.07,3.07,0,0,0,1.93-.67A3.31,3.31,0,0,0,137.88,15ZM52.43,39.21h3.35l1.35-7.67h2.35L60,28.85H57.6l.59-3.34H54.85Zm37.22,0H93l1.35-7.67H96.7l.47-2.69H94.82l.59-3.34H92.07ZM68.23,28.58a4.33,4.33,0,0,0-2.1.44,5.47,5.47,0,0,0-1.44,1.06l1.37-7.79H62.72l-3,16.92h3.34L64,34a3.5,3.5,0,0,1,1.08-2.16,2.19,2.19,0,0,1,1.41-.51,1.58,1.58,0,0,1,1.22.47,2.53,2.53,0,0,1,.19,2.06L67,39.21H70.3l1.16-6.57a3.68,3.68,0,0,0-.49-3A3.36,3.36,0,0,0,68.23,28.58Zm15.12,1.48a5.23,5.23,0,0,1,.72,4.2l-.06.35H76.28a2.45,2.45,0,0,0,.32,1.76,1.89,1.89,0,0,0,1.6.65,3.06,3.06,0,0,0,1.4-.3,2.6,2.6,0,0,0,.87-.86l3.1.33a5.94,5.94,0,0,1-2.45,2.6,6.93,6.93,0,0,1-3.41.76,4.57,4.57,0,0,1-3.87-1.48,4.79,4.79,0,0,1-.85-4A7.12,7.12,0,0,1,75.29,30a6.35,6.35,0,0,1,4.23-1.49A4.62,4.62,0,0,1,83.35,30.06Zm-2.07,2.55a2.24,2.24,0,0,0-.46-1.2,1.91,1.91,0,0,0-1.48-.58,2.66,2.66,0,0,0-1.81.67,2.85,2.85,0,0,0-.78,1.11Zm25-3.76h3.34l-1.82,10.36h-3.34l.22-1.26a4.17,4.17,0,0,1-3.35,1.6A4.13,4.13,0,0,1,97.76,38a4.79,4.79,0,0,1-.82-3.87,7.19,7.19,0,0,1,2.34-4.18,5.91,5.91,0,0,1,3.84-1.42,3.24,3.24,0,0,1,3,1.51Zm-.7,5.15a2.26,2.26,0,0,0-.43-1.9,2.38,2.38,0,0,0-1.73-.72A3.23,3.23,0,0,0,100.39,34a2.35,2.35,0,0,0,.37,1.86,2.28,2.28,0,0,0,1.83.81,3,3,0,0,0,1.87-.71A3.23,3.23,0,0,0,105.61,34Zm12.62-.32a3.45,3.45,0,0,0-1.56-.9l-.83-.28a5.27,5.27,0,0,1-.94-.35.44.44,0,0,1-.24-.46.87.87,0,0,1,.29-.47,1.65,1.65,0,0,1,1-.3,3.28,3.28,0,0,1,1.73.58l1.69-2.11a5.71,5.71,0,0,0-3.28-.89,5.25,5.25,0,0,0-3.31,1.05,3.87,3.87,0,0,0-1.42,2.39,2.2,2.2,0,0,0,.41,1.88,3.23,3.23,0,0,0,1.5,1l.79.26a3.83,3.83,0,0,1,1,.37.56.56,0,0,1,.26.6,1.07,1.07,0,0,1-.46.67,2,2,0,0,1-1.09.24,2.85,2.85,0,0,1-1.34-.33,4.72,4.72,0,0,1-1-.76l-1.81,2.25a5.26,5.26,0,0,0,4,1.48,5.19,5.19,0,0,0,3.57-1.18,4.71,4.71,0,0,0,1.55-2.72A2.16,2.16,0,0,0,118.23,33.68Zm14.92-4.83h-4.38l-4.44,3.81,1.83-10.37h-3.34l-3,16.92h3.34l.79-4.46,3.2,4.46h4.5l-4.27-5.67ZM60.94,9.94l.3-1.74a3.61,3.61,0,0,1,.69-1.79A1.47,1.47,0,0,1,63,6a2.18,2.18,0,0,1,1,.25l.51-2.87a4.74,4.74,0,0,0-1.59-.25A4.52,4.52,0,0,0,59.75,4.3,5.87,5.87,0,0,0,58,7.9L55.77,20.29h3.34l1.35-7.66h2.36l.47-2.69Z"/></clipPath><clipPath id="clip-path-2" transform="translate(5 5)"><path class="cls-1" d="M36.73,15.18h3.34l-.59,3.34h2.36l-.47,2.69H39l-1.35,7.66H34.32ZM27,28.87h3.35l1.35-7.66h2.35l.48-2.69H32.18l.59-3.34H29.43ZM24.88,18.52l.3-1.74A3.61,3.61,0,0,1,25.87,15a1.47,1.47,0,0,1,1.05-.41,2.05,2.05,0,0,1,1,.25L28.39,12a5,5,0,0,0-1.59-.25,4.52,4.52,0,0,0-3.11,1.18,5.89,5.89,0,0,0-1.8,3.6L19.71,28.87h3.34l1.35-7.66h2.36l.47-2.69Z"/></clipPath><clipPath id="clip-path-3" transform="translate(5 5)"><path class="cls-1" d="M14.2,17.37a6.94,6.94,0,0,0-4-1.54,9.68,9.68,0,0,0-4.55,1.54,7.05,7.05,0,0,1-3.12,1.15H1.26L.79,21.16H2.07a9.67,9.67,0,0,0,4.54-1.53,7,7,0,0,1,3.12-1.17,5,5,0,0,1,2.72,1.17,6.9,6.9,0,0,0,4,1.53H17.7l.46-2.64H16.91a5,5,0,0,1-2.71-1.15"/></clipPath><clipPath id="clip-path-4" transform="translate(5 5)"><path class="cls-1" d="M13.36,21.74a6.94,6.94,0,0,0-4-1.54,9.68,9.68,0,0,0-4.55,1.54A7.08,7.08,0,0,1,1.69,22.9H.46L0,25.54H1.23A9.68,9.68,0,0,0,5.77,24a7.13,7.13,0,0,1,3.12-1.16A5,5,0,0,1,11.61,24a6.91,6.91,0,0,0,4,1.54h1.3l.46-2.64h-1.3a5,5,0,0,1-2.71-1.16"/></clipPath><clipPath id="clip-path-5" transform="translate(5 5)"><rect class="cls-2" x="1.59" width="48.51" height="42.59"/></clipPath><clipPath id="clip-path-6" transform="translate(5 5)"><rect class="cls-2" x="1" width="50" height="43"/></clipPath><clipPath id="clip-path-7" transform="translate(5 5)"><path class="cls-1" d="M28.8,0A21.32,21.32,0,0,0,9.86,11.58,12.36,12.36,0,0,0,6.49,13a7.13,7.13,0,0,1-3.12,1.16H2.05l-.46,2.64H2.9a9.68,9.68,0,0,0,4.55-1.54,7.13,7.13,0,0,1,3.12-1.16,5,5,0,0,1,2.71,1.16,7,7,0,0,0,4,1.54h1.2L19,14.15H17.75A5,5,0,0,1,15,13a9.48,9.48,0,0,0-2.34-1.26,18.73,18.73,0,1,1-1,17.14H8.9A21.3,21.3,0,1,0,28.8,0"/></clipPath></defs><title>finishing-the-task-logo-reversed</title><g id="Layer_2" data-name="Layer 2"><g id="Layer_1-2" data-name="Layer 1"><g class="cls-3"><rect class="cls-4" x="52.43" y="3.12" width="99.41" height="46.44"/></g><g class="cls-5"><rect class="cls-6" x="19.71" y="11.7" width="32.13" height="27.17"/></g><g class="cls-7"><rect class="cls-6" x="0.79" y="15.83" width="27.37" height="15.33"/></g><g class="cls-8"><rect class="cls-6" y="20.2" width="27.37" height="15.33"/></g><g class="cls-9"><g class="cls-10"><g class="cls-11"><g class="cls-12"><g class="cls-11"><rect class="cls-6" x="1.59" width="58.51" height="52.59"/></g></g></g></g></g></g></g></svg>