<?xml version="1.0" encoding="UTF-8" standalone="no"?>
<!-- Created with Inkscape (http://www.inkscape.org/) -->

<svg
   width="93.003578mm"
   height="14.179409mm"
   viewBox="0 0 93.003578 14.179409"
   version="1.1"
   id="svg257"
   xmlns="http://www.w3.org/2000/svg"
   xmlns:svg="http://www.w3.org/2000/svg">
  <defs
     id="defs254" />
  <g
     id="layer1"
     transform="translate(-13.505882,-153.56375)">
    <path
       d="m 26.637682,165.69387 c -2.772833,0 -5.028847,-2.25566 -5.028847,-5.02814 0,-0.44732 0.05997,-0.88759 0.174625,-1.30987 0.343958,-1.26717 1.176514,-2.37419 2.339975,-3.04658 0.759883,-0.43992 1.62948,-0.67205 2.514247,-0.67205 2.772833,0 5.0292,2.25567 5.0292,5.0285 0,2.77248 -2.256367,5.02814 -5.0292,5.02814 m -11.082514,0 v -5.02814 c 0,-2.77283 2.255661,-5.0285 5.0292,-5.0285 0.329847,0 0.657931,0.0321 0.978959,0.0956 -0.08326,0.0861 -0.164395,0.17497 -0.243064,0.26493 -0.01623,0.0183 -0.0314,0.0374 -0.04727,0.0564 -0.07444,0.0868 -0.146755,0.17498 -0.216252,0.26529 -0.02646,0.0332 -0.05151,0.0663 -0.07691,0.10019 -0.0642,0.0857 -0.126294,0.1725 -0.185914,0.2607 -0.01834,0.0272 -0.03775,0.054 -0.05609,0.0808 -0.07514,0.11395 -0.147109,0.23037 -0.215548,0.34855 -0.01517,0.0254 -0.02928,0.0519 -0.04374,0.0783 -0.05362,0.0949 -0.105481,0.1912 -0.154517,0.28892 -0.0187,0.0367 -0.03704,0.0737 -0.05539,0.11077 -0.04868,0.1016 -0.0956,0.20497 -0.1397,0.30833 -0.01023,0.024 -0.02152,0.0473 -0.0314,0.0716 -0.05221,0.12665 -0.100542,0.25506 -0.145697,0.38453 -0.01164,0.0328 -0.02187,0.0656 -0.03281,0.0988 -0.03316,0.10054 -0.06456,0.20249 -0.09349,0.30515 -0.01094,0.0392 -0.02187,0.0787 -0.03245,0.11854 -0.03105,0.11818 -0.05927,0.23706 -0.08467,0.35701 -0.0032,0.0162 -0.0071,0.0328 -0.01094,0.0497 -0.02681,0.13582 -0.04904,0.27234 -0.06879,0.40993 -0.0053,0.0381 -0.0095,0.0758 -0.01411,0.1143 -0.0127,0.10442 -0.02364,0.2099 -0.03175,0.31609 -0.0032,0.0402 -0.0067,0.0808 -0.0088,0.12135 -0.0085,0.14076 -0.01411,0.28116 -0.01411,0.42263 0,0.12277 0.0028,0.24377 0.0088,0.36477 0.0025,0.0427 0.0067,0.085 0.0099,0.12771 0.0056,0.0772 0.01023,0.15522 0.01799,0.23212 0.0053,0.0515 0.01305,0.10125 0.0194,0.15205 0.0081,0.0677 0.01588,0.13617 0.02611,0.2032 0.0085,0.0565 0.02011,0.11289 0.02999,0.16863 0.01094,0.0603 0.02046,0.12065 0.03246,0.18027 0.0127,0.0614 0.02858,0.12206 0.04269,0.18309 0.01235,0.0533 0.02328,0.10689 0.03669,0.15946 0.01623,0.061 0.03493,0.12135 0.05221,0.18238 0.01482,0.0515 0.02822,0.10337 0.04445,0.15452 0.0187,0.061 0.04022,0.12065 0.06103,0.18097 0.01693,0.049 0.03246,0.0991 0.05045,0.14817 0.02258,0.061 0.04798,0.12065 0.07161,0.18027 0.01905,0.0476 0.03669,0.0949 0.05609,0.14146 0.02575,0.06 0.05327,0.11818 0.08043,0.17745 0.02117,0.0455 0.04057,0.0917 0.0628,0.13688 0.02787,0.0582 0.05856,0.115 0.08855,0.17251 0.02258,0.0444 0.0448,0.0892 0.06844,0.13299 0.03069,0.0564 0.06385,0.11183 0.09631,0.16757 0.0254,0.043 0.04904,0.0868 0.0755,0.12947 0.03316,0.0547 0.06879,0.10795 0.103363,0.16158 0.02716,0.0423 0.05398,0.085 0.08185,0.12629 0.03598,0.0529 0.07408,0.10477 0.111478,0.15628 0.02893,0.0402 0.05715,0.0818 0.08714,0.12136 0.03775,0.0508 0.07726,0.0991 0.116416,0.14852 0.03175,0.0399 0.0628,0.0808 0.09525,0.11994 0.03916,0.0476 0.07973,0.0928 0.12065,0.13935 0.03457,0.0395 0.06809,0.0794 0.103364,0.11818 0.04092,0.0445 0.08326,0.0875 0.125236,0.13088 0.03704,0.0384 0.07302,0.078 0.110773,0.11536 0.0049,0.005 0.0092,0.01 0.01411,0.0145 z m 11.082514,-12.10592 c -1.050925,0 -2.085975,0.23601 -3.027186,0.68192 -0.941564,-0.44591 -1.976261,-0.68192 -3.026128,-0.68192 -3.90278,0 -7.078486,3.17535 -7.078486,7.07778 v 7.07743 h 13.1318 c 3.90278,0 7.078133,-3.175 7.078133,-7.07743 0,-3.90243 -3.175353,-7.07778 -7.078133,-7.07778"
       style="fill:#f37029;fill-opacity:1;fill-rule:nonzero;stroke:none;stroke-width:0.352778"
       id="path108" />
    <g
       id="g1026">
      <g
         id="g110"
         transform="matrix(0.35277777,0,0,-0.35277777,42.487882,153.60369)" />
    </g>
    <path
       d="m 42.487883,153.60369 v 9.50983 c 0,1.31586 -0.697794,2.03376 -1.8542,2.03376 -0.916869,0 -2.033411,-0.53869 -2.970742,-1.55539 l -1.255536,1.9939 c 1.096434,1.33561 2.551642,2.09338 4.306006,2.09338 2.751666,0 4.466166,-1.63477 4.466166,-4.50568 v -9.5698 z"
       style="fill:#feffff;fill-opacity:1;fill-rule:nonzero;stroke:none;stroke-width:0.352778"
       id="path112" />
    <path
       d="m 53.937671,155.93653 c -2.631722,0 -4.685242,2.03341 -4.685242,4.62492 0,2.61196 2.05352,4.64573 4.685242,4.64573 1.335617,0 2.751314,-0.61807 3.787775,-1.63478 l 1.575153,1.75437 c -1.4351,1.45556 -3.488972,2.39218 -5.502628,2.39218 -4.107039,0 -7.276747,-3.08998 -7.276747,-7.11729 0,-3.98744 3.209572,-7.03791 7.376583,-7.03791 1.993547,0 4.027311,0.8576 5.383036,2.23308 l -1.555397,1.95368 c -0.99695,-1.11619 -2.412294,-1.81398 -3.787775,-1.81398"
       style="fill:#feffff;fill-opacity:1;fill-rule:nonzero;stroke:none;stroke-width:0.352778"
       id="path116" />
    <path
       d="m 69.963909,157.25218 c 0,-1.37548 -1.116189,-2.19322 -2.95028,-2.19322 -1.316214,0 -2.811287,0.65793 -3.967692,1.71485 l -0.697794,-1.21637 c 1.395588,-1.19627 3.149952,-1.93393 4.864452,-1.93393 2.651831,0 4.405842,1.33597 4.405842,3.42935 0,1.31586 -1.036109,2.93053 -2.571397,4.52579 l -4.525786,4.60551 h 7.934677 v 1.47496 H 62.48749 v -1.29575 l 5.462763,-5.66208 c 1.216378,-1.23649 2.013656,-2.53189 2.013656,-3.44911"
       style="fill:#feffff;fill-opacity:1;fill-rule:nonzero;stroke:none;stroke-width:0.352778"
       id="path120" />
    <path
       d="m 78.868443,166.37325 c -2.372431,0 -3.588808,-1.93393 -3.588808,-5.74181 0,-3.80788 1.216377,-5.70195 3.588808,-5.70195 2.332567,0 3.5687,1.89407 3.5687,5.70195 0,3.80788 -1.236133,5.74181 -3.5687,5.74181 m 0,-12.75962 c -3.329517,0 -5.183364,2.51178 -5.183364,7.01781 0,4.52579 1.853847,7.03792 5.183364,7.03792 3.309761,0 5.163961,-2.51213 5.163961,-7.03792 0,-4.50603 -1.8542,-7.01781 -5.163961,-7.01781"
       style="fill:#feffff;fill-opacity:1;fill-rule:nonzero;stroke:none;stroke-width:0.352778"
       id="path124" />
    <path
       d="m 95.092762,163.30299 c 0,2.5721 -2.053519,4.34622 -5.383036,4.34622 -1.754011,0 -3.5687,-0.55845 -4.804833,-1.37548 l 0.698147,-1.31621 c 1.096433,0.81738 2.57175,1.31621 4.027311,1.31621 2.452158,0 3.907367,-1.17651 3.907367,-2.91112 0,-1.77447 -1.475317,-2.69169 -3.947584,-2.69169 h -1.8542 v -0.97649 l 4.645378,-4.58576 h -6.79838 l -0.02011,-1.47532 h 8.832145 v 1.05657 l -4.884209,4.8447 0.856898,0.0402 c 2.851149,0.13935 4.725105,1.47532 4.725105,3.72816"
       style="fill:#feffff;fill-opacity:1;fill-rule:nonzero;stroke:none;stroke-width:0.352778"
       id="path128" />
    <path
       d="m 106.50946,163.30299 c 0,2.5721 -2.05352,4.34622 -5.38304,4.34622 -1.75436,0 -3.568696,-0.55845 -4.804829,-1.37548 l 0.697794,-1.31621 c 1.096081,0.81738 2.57175,1.31621 4.027315,1.31621 2.45215,0 3.90772,-1.17651 3.90772,-2.91112 0,-1.77447 -1.47567,-2.69169 -3.94794,-2.69169 h -1.853848 v -0.97649 l 4.645028,-4.58576 h -6.798383 l -0.02011,-1.47532 h 8.832143 v 1.05657 l -4.88456,4.8447 0.85725,0.0402 c 2.85115,0.13935 4.72546,1.47532 4.72546,3.72816"
       style="fill:#feffff;fill-opacity:1;fill-rule:nonzero;stroke:none;stroke-width:0.352778"
       id="path132" />
  </g>
</svg>
